<?xml version="1.0" encoding="UTF-8"?><svg id="Layer_1" xmlns="http://www.w3.org/2000/svg" viewBox="0 0 491.43 337.31"><defs><style>.cls-1{fill:#203a51;}.cls-2{fill:#57559f;}.cls-3{fill:#22363d;font-size:40.98px;}.cls-3,.cls-4,.cls-5,.cls-6,.cls-7{stroke:#e6e7e8;stroke-miterlimit:10;stroke-width:.5px;}.cls-3,.cls-6{font-family:TTCommons-Light, 'TT Commons';font-weight:300;}.cls-4{fill:#46b974;font-family:TTCommons-Medium, 'TT Commons';font-weight:500;}.cls-4,.cls-6{font-size:74.76px;}.cls-5{fill:#4dba75;}.cls-8{fill:#525ba5;}.cls-9{fill:#203a50;}.cls-6{fill:#103a46;}.cls-7{fill:none;}</style></defs><polygon class="cls-1" points="172.81 163.11 109.2 160.44 213.57 .45 242.64 42.39 172.81 163.11"/><polygon class="cls-7" points="172.81 163.11 109.2 160.44 213.57 .45 242.64 42.39 172.81 163.11"/><polygon class="cls-8" points="141.58 216.06 74.53 216.44 109.2 160.44 172.81 163.11 141.58 216.06"/><polygon class="cls-7" points="141.58 216.06 74.53 216.44 109.2 160.44 172.81 163.11 141.58 216.06"/><polygon class="cls-8" points="319.09 160.44 256.62 163.11 213.67 92.47 242.64 42.39 319.09 160.44"/><polygon class="cls-7" points="319.09 160.44 256.62 163.11 213.67 92.47 242.64 42.39 319.09 160.44"/><polygon class="cls-5" points="356.43 216.44 289 216.44 256.62 163.11 319.09 160.44 356.43 216.44"/><polygon class="cls-1" points="256.62 163.11 172.81 163.11 141.58 216.06 289.66 216.3 256.62 163.11"/><polygon class="cls-7" points="256.62 163.11 172.81 163.11 141.58 216.06 289.66 216.3 256.62 163.11"/><rect class="cls-5" x="390.33" y="115.11" width="35.43" height="35.43"/><rect class="cls-2" x="364.62" y="166.54" width="31.24" height="31.24"/><rect class="cls-7" x="364.62" y="166.54" width="31.24" height="31.24"/><rect class="cls-9" x="353.95" y="81.78" width="24.95" height="24.95"/><rect class="cls-7" x="353.95" y="81.78" width="24.95" height="24.95"/><text class="cls-6" transform="translate(.25 286.82)"><tspan x="0" y="0">CRCONI</tspan></text><text class="cls-4" transform="translate(247.1 285.7)"><tspan x="0" y="0">DIGITAL</tspan></text><text class="cls-3" transform="translate(27.26 327.64)"><tspan x="0" y="0">Your Partners in Excellence</tspan></text></svg>