<?xml version="1.0" encoding="UTF-8"?><svg id="Layer_1" xmlns="http://www.w3.org/2000/svg" viewBox="0 0 502.3 336.12"><defs><style>.cls-1{fill:#46b974;}.cls-1,.cls-2,.cls-3,.cls-4,.cls-5,.cls-6{stroke:#231f20;}.cls-1,.cls-2,.cls-3,.cls-4,.cls-5,.cls-6,.cls-7{stroke-width:.25px;}.cls-1,.cls-3,.cls-8,.cls-6,.cls-9{font-size:76px;}.cls-1,.cls-3,.cls-9{font-family:TTCommons-Medium, 'TT Commons';font-weight:500;}.cls-1,.cls-4,.cls-7{stroke-miterlimit:10;}.cls-10{fill:#5a53a3;}.cls-2,.cls-3,.cls-4,.cls-5,.cls-6,.cls-7{fill:none;}.cls-11,.cls-9{fill:#5abd8c;}.cls-5,.cls-12{font-family:TTCommons-Regular, 'TT Commons';font-size:42px;}.cls-8{fill:#9badd9;}.cls-8,.cls-6{font-family:TTCommons-Light, 'TT Commons';font-weight:300;}.cls-13{fill:#023c55;}.cls-12{fill:#51c6d9;}.cls-7{stroke:#fff;}</style></defs><polygon class="cls-13" points="198.56 162.88 134.95 160.22 239.32 .22 268.39 42.16 198.56 162.88"/><polygon class="cls-7" points="198.56 162.88 134.95 160.22 239.32 .22 268.39 42.16 198.56 162.88"/><polygon class="cls-4" points="198.56 162.88 134.95 160.22 239.32 .22 268.39 42.16 198.56 162.88"/><polygon class="cls-10" points="167.33 215.83 100.28 216.21 134.95 160.22 198.56 162.88 167.33 215.83"/><polygon class="cls-7" points="167.33 215.83 100.28 216.21 134.95 160.22 198.56 162.88 167.33 215.83"/><polygon class="cls-4" points="167.33 215.83 100.28 216.21 134.95 160.22 198.56 162.88 167.33 215.83"/><polygon class="cls-10" points="344.84 160.22 282.37 162.88 239.42 92.25 268.39 42.16 344.84 160.22"/><polygon class="cls-7" points="344.84 160.22 282.37 162.88 239.42 92.25 268.39 42.16 344.84 160.22"/><polygon class="cls-4" points="344.84 160.22 282.37 162.88 239.42 92.25 268.39 42.16 344.84 160.22"/><polygon class="cls-11" points="382.18 216.21 314.75 216.21 282.37 162.88 344.84 160.22 382.18 216.21"/><polygon class="cls-7" points="382.18 216.21 314.75 216.21 282.37 162.88 344.84 160.22 382.18 216.21"/><polygon class="cls-4" points="382.18 216.21 314.75 216.21 282.37 162.88 344.84 160.22 382.18 216.21"/><polygon class="cls-13" points="282.37 162.88 198.56 162.88 167.33 215.83 315.41 216.08 282.37 162.88"/><polygon class="cls-7" points="282.37 162.88 198.56 162.88 167.33 215.83 315.41 216.08 282.37 162.88"/><polygon class="cls-4" points="282.37 162.88 198.56 162.88 167.33 215.83 315.41 216.08 282.37 162.88"/><rect class="cls-11" x="416.08" y="114.89" width="35.43" height="35.43"/><rect class="cls-10" x="390.37" y="166.31" width="31.24" height="31.24"/><rect class="cls-13" x="379.7" y="81.55" width="24.95" height="24.95"/><rect class="cls-7" x="379.7" y="81.55" width="24.95" height="24.95"/><rect class="cls-7" x="379.7" y="81.55" width="24.95" height="24.95"/><rect class="cls-4" x="379.7" y="81.55" width="24.95" height="24.95"/><text class="cls-8" transform="translate(0 284.6)"><tspan x="0" y="0">CRCONI</tspan></text><text class="cls-1" transform="translate(246.85 283.48)"><tspan x="0" y="0"> </tspan></text><text class="cls-12" transform="translate(33.01 325.41)"><tspan x="0" y="0">Your Partners in Excellence</tspan></text><polygon class="cls-2" points="198.56 162.88 134.95 160.22 239.32 .22 268.39 42.16 198.56 162.88"/><polygon class="cls-2" points="198.56 162.88 134.95 160.22 239.32 .22 268.39 42.16 198.56 162.88"/><polygon class="cls-2" points="198.56 162.88 134.95 160.22 239.32 .22 268.39 42.16 198.56 162.88"/><polygon class="cls-2" points="167.33 215.83 100.28 216.21 134.95 160.22 198.56 162.88 167.33 215.83"/><polygon class="cls-2" points="167.33 215.83 100.28 216.21 134.95 160.22 198.56 162.88 167.33 215.83"/><polygon class="cls-2" points="167.33 215.83 100.28 216.21 134.95 160.22 198.56 162.88 167.33 215.83"/><polygon class="cls-2" points="344.84 160.22 282.37 162.88 239.42 92.25 268.39 42.16 344.84 160.22"/><polygon class="cls-2" points="344.84 160.22 282.37 162.88 239.42 92.25 268.39 42.16 344.84 160.22"/><polygon class="cls-2" points="344.84 160.22 282.37 162.88 239.42 92.25 268.39 42.16 344.84 160.22"/><polygon class="cls-2" points="382.18 216.21 314.75 216.21 282.37 162.88 344.84 160.22 382.18 216.21"/><polygon class="cls-2" points="382.18 216.21 314.75 216.21 282.37 162.88 344.84 160.22 382.18 216.21"/><polygon class="cls-2" points="382.18 216.21 314.75 216.21 282.37 162.88 344.84 160.22 382.18 216.21"/><polygon class="cls-2" points="282.37 162.88 198.56 162.88 167.33 215.83 315.41 216.08 282.37 162.88"/><polygon class="cls-2" points="282.37 162.88 198.56 162.88 167.33 215.83 315.41 216.08 282.37 162.88"/><polygon class="cls-2" points="282.37 162.88 198.56 162.88 167.33 215.83 315.41 216.08 282.37 162.88"/><rect class="cls-2" x="416.08" y="114.89" width="35.43" height="35.43"/><rect class="cls-2" x="390.37" y="166.31" width="31.24" height="31.24"/><rect class="cls-2" x="379.7" y="81.55" width="24.95" height="24.95"/><rect class="cls-2" x="379.7" y="81.55" width="24.95" height="24.95"/><rect class="cls-2" x="379.7" y="81.55" width="24.95" height="24.95"/><rect class="cls-2" x="379.7" y="81.55" width="24.95" height="24.95"/><text class="cls-6" transform="translate(0 284.6)"><tspan x="0" y="0">CRCONI</tspan></text><text class="cls-3" transform="translate(246.85 283.48)"><tspan x="0" y="0"> </tspan></text><text class="cls-5" transform="translate(33.01 325.41)"><tspan x="0" y="0">Your Partners in Excellence</tspan></text><text class="cls-9" transform="translate(254.16 284.6)"><tspan x="0" y="0">DIGITAL</tspan></text></svg>